<svg class="rich-terminal" viewBox="0 0 1482 830.8" xmlns="http://www.w3.org/2000/svg">
    <!-- Generated with Rich https://www.textualize.io -->
    <style>

    @font-face {
        font-family: "Fira Code";
        src: local("FiraCode-Regular"),
                url("https://cdnjs.cloudflare.com/ajax/libs/firacode/6.2.0/woff2/FiraCode-Regular.woff2") format("woff2"),
                url("https://cdnjs.cloudflare.com/ajax/libs/firacode/6.2.0/woff/FiraCode-Regular.woff") format("woff");
        font-style: normal;
        font-weight: 400;
    }
    @font-face {
        font-family: "Fira Code";
        src: local("FiraCode-Bold"),
                url("https://cdnjs.cloudflare.com/ajax/libs/firacode/6.2.0/woff2/FiraCode-Bold.woff2") format("woff2"),
                url("https://cdnjs.cloudflare.com/ajax/libs/firacode/6.2.0/woff/FiraCode-Bold.woff") format("woff");
        font-style: bold;
        font-weight: 700;
    }

    .terminal-ID-matrix {
        font-family: Fira Code, monospace;
        font-size: 20px;
        line-height: 24.4px;
        font-variant-east-asian: full-width;
    }

    .terminal-ID-title {
        font-size: 18px;
        font-weight: bold;
        font-family: arial;
    }

    .terminal-ID-r1 { fill: #e0e0e0 }
.terminal-ID-r2 { fill: #c5c8c6 }
    </style>

    <defs>
    <clipPath id="terminal-ID-clip-terminal">
      <rect x="0" y="0" width="1463.0" height="779.8" />
    </clipPath>
    <clipPath id="terminal-ID-line-0">
    <rect x="0" y="1.5" width="1464" height="24.65"/>
            </clipPath>
<clipPath id="terminal-ID-line-1">
    <rect x="0" y="25.9" width="1464" height="24.65"/>
            </clipPath>
<clipPath id="terminal-ID-line-2">
    <rect x="0" y="50.3" width="1464" height="24.65"/>
            </clipPath>
<clipPath id="terminal-ID-line-3">
    <rect x="0" y="74.7" width="1464" height="24.65"/>
            </clipPath>
<clipPath id="terminal-ID-line-4">
    <rect x="0" y="99.1" width="1464" height="24.65"/>
            </clipPath>
<clipPath id="terminal-ID-line-5">
    <rect x="0" y="123.5" width="1464" height="24.65"/>
            </clipPath>
<clipPath id="terminal-ID-line-6">
    <rect x="0" y="147.9" width="1464" height="24.65"/>
            </clipPath>
<clipPath id="terminal-ID-line-7">
    <rect x="0" y="172.3" width="1464" height="24.65"/>
            </clipPath>
<clipPath id="terminal-ID-line-8">
    <rect x="0" y="196.7" width="1464" height="24.65"/>
            </clipPath>
<clipPath id="terminal-ID-line-9">
    <rect x="0" y="221.1" width="1464" height="24.65"/>
            </clipPath>
<clipPath id="terminal-ID-line-10">
    <rect x="0" y="245.5" width="1464" height="24.65"/>
            </clipPath>
<clipPath id="terminal-ID-line-11">
    <rect x="0" y="269.9" width="1464" height="24.65"/>
            </clipPath>
<clipPath id="terminal-ID-line-12">
    <rect x="0" y="294.3" width="1464" height="24.65"/>
            </clipPath>
<clipPath id="terminal-ID-line-13">
    <rect x="0" y="318.7" width="1464" height="24.65"/>
            </clipPath>
<clipPath id="terminal-ID-line-14">
    <rect x="0" y="343.1" width="1464" height="24.65"/>
            </clipPath>
<clipPath id="terminal-ID-line-15">
    <rect x="0" y="367.5" width="1464" height="24.65"/>
            </clipPath>
<clipPath id="terminal-ID-line-16">
    <rect x="0" y="391.9" width="1464" height="24.65"/>
            </clipPath>
<clipPath id="terminal-ID-line-17">
    <rect x="0" y="416.3" width="1464" height="24.65"/>
            </clipPath>
<clipPath id="terminal-ID-line-18">
    <rect x="0" y="440.7" width="1464" height="24.65"/>
            </clipPath>
<clipPath id="terminal-ID-line-19">
    <rect x="0" y="465.1" width="1464" height="24.65"/>
            </clipPath>
<clipPath id="terminal-ID-line-20">
    <rect x="0" y="489.5" width="1464" height="24.65"/>
            </clipPath>
<clipPath id="terminal-ID-line-21">
    <rect x="0" y="513.9" width="1464" height="24.65"/>
            </clipPath>
<clipPath id="terminal-ID-line-22">
    <rect x="0" y="538.3" width="1464" height="24.65"/>
            </clipPath>
<clipPath id="terminal-ID-line-23">
    <rect x="0" y="562.7" width="1464" height="24.65"/>
            </clipPath>
<clipPath id="terminal-ID-line-24">
    <rect x="0" y="587.1" width="1464" height="24.65"/>
            </clipPath>
<clipPath id="terminal-ID-line-25">
    <rect x="0" y="611.5" width="1464" height="24.65"/>
            </clipPath>
<clipPath id="terminal-ID-line-26">
    <rect x="0" y="635.9" width="1464" height="24.65"/>
            </clipPath>
<clipPath id="terminal-ID-line-27">
    <rect x="0" y="660.3" width="1464" height="24.65"/>
            </clipPath>
<clipPath id="terminal-ID-line-28">
    <rect x="0" y="684.7" width="1464" height="24.65"/>
            </clipPath>
<clipPath id="terminal-ID-line-29">
    <rect x="0" y="709.1" width="1464" height="24.65"/>
            </clipPath>
<clipPath id="terminal-ID-line-30">
    <rect x="0" y="733.5" width="1464" height="24.65"/>
            </clipPath>
    </defs>

    <rect fill="#292929" stroke="rgba(255,255,255,0.35)" stroke-width="1" x="1" y="1" width="1480" height="828.8" rx="8"/><text class="terminal-ID-title" fill="#c5c8c6" text-anchor="middle" x="740" y="27">revrem-run</text>
            <g transform="translate(26,22)">
            <circle cx="0" cy="0" r="7" fill="#ff5f57"/>
            <circle cx="22" cy="0" r="7" fill="#febc2e"/>
            <circle cx="44" cy="0" r="7" fill="#28c840"/>
            </g>
    <g transform="translate(9, 41)" clip-path="url(#terminal-ID-clip-terminal)">
    <rect fill="#121212" x="0" y="1.5" width="414.8" height="24.65" shape-rendering="crispEdges"/><rect fill="#121212" x="414.8" y="1.5" width="1049.2" height="24.65" shape-rendering="crispEdges"/><rect fill="#121212" x="0" y="25.9" width="24.4" height="24.65" shape-rendering="crispEdges"/><rect fill="#121212" x="24.4" y="25.9" width="512.4" height="24.65" shape-rendering="crispEdges"/><rect fill="#121212" x="536.8" y="25.9" width="280.6" height="24.65" shape-rendering="crispEdges"/><rect fill="#121212" x="817.4" y="25.9" width="646.6" height="24.65" shape-rendering="crispEdges"/><rect fill="#121212" x="0" y="50.3" width="12.2" height="24.65" shape-rendering="crispEdges"/><rect fill="#121212" x="12.2" y="50.3" width="524.6" height="24.65" shape-rendering="crispEdges"/><rect fill="#121212" x="536.8" y="50.3" width="231.8" height="24.65" shape-rendering="crispEdges"/><rect fill="#121212" x="768.6" y="50.3" width="695.4" height="24.65" shape-rendering="crispEdges"/><rect fill="#121212" x="0" y="74.7" width="12.2" height="24.65" shape-rendering="crispEdges"/><rect fill="#121212" x="12.2" y="74.7" width="524.6" height="24.65" shape-rendering="crispEdges"/><rect fill="#121212" x="536.8" y="74.7" width="366" height="24.65" shape-rendering="crispEdges"/><rect fill="#121212" x="902.8" y="74.7" width="561.2" height="24.65" shape-rendering="crispEdges"/><rect fill="#121212" x="0" y="99.1" width="12.2" height="24.65" shape-rendering="crispEdges"/><rect fill="#121212" x="12.2" y="99.1" width="524.6" height="24.65" shape-rendering="crispEdges"/><rect fill="#121212" x="536.8" y="99.1" width="292.8" height="24.65" shape-rendering="crispEdges"/><rect fill="#121212" x="829.6" y="99.1" width="634.4" height="24.65" shape-rendering="crispEdges"/><rect fill="#121212" x="0" y="123.5" width="402.6" height="24.65" shape-rendering="crispEdges"/><rect fill="#121212" x="402.6" y="123.5" width="134.2" height="24.65" shape-rendering="crispEdges"/><rect fill="#121212" x="536.8" y="123.5" width="231.8" height="24.65" shape-rendering="crispEdges"/><rect fill="#121212" x="768.6" y="123.5" width="695.4" height="24.65" shape-rendering="crispEdges"/><rect fill="#121212" x="0" y="147.9" width="73.2" height="24.65" shape-rendering="crispEdges"/><rect fill="#121212" x="73.2" y="147.9" width="1390.8" height="24.65" shape-rendering="crispEdges"/><rect fill="#121212" x="0" y="172.3" width="305" height="24.65" shape-rendering="crispEdges"/><rect fill="#121212" x="305" y="172.3" width="1159" height="24.65" shape-rendering="crispEdges"/><rect fill="#121212" x="0" y="196.7" width="402.6" height="24.65" shape-rendering="crispEdges"/><rect fill="#121212" x="402.6" y="196.7" width="1061.4" height="24.65" shape-rendering="crispEdges"/><rect fill="#121212" x="0" y="221.1" width="341.6" height="24.65" shape-rendering="crispEdges"/><rect fill="#121212" x="341.6" y="221.1" width="1122.4" height="24.65" shape-rendering="crispEdges"/><rect fill="#121212" x="0" y="245.5" width="463.6" height="24.65" shape-rendering="crispEdges"/><rect fill="#121212" x="463.6" y="245.5" width="1000.4" height="24.65" shape-rendering="crispEdges"/><rect fill="#121212" x="0" y="269.9" width="390.4" height="24.65" shape-rendering="crispEdges"/><rect fill="#121212" x="390.4" y="269.9" width="1073.6" height="24.65" shape-rendering="crispEdges"/><rect fill="#121212" x="0" y="294.3" width="305" height="24.65" shape-rendering="crispEdges"/><rect fill="#121212" x="305" y="294.3" width="1159" height="24.65" shape-rendering="crispEdges"/><rect fill="#121212" x="0" y="318.7" width="427" height="24.65" shape-rendering="crispEdges"/><rect fill="#121212" x="427" y="318.7" width="1037" height="24.65" shape-rendering="crispEdges"/><rect fill="#121212" x="0" y="343.1" width="1464" height="24.65" shape-rendering="crispEdges"/><rect fill="#121212" x="0" y="367.5" width="1464" height="24.65" shape-rendering="crispEdges"/><rect fill="#121212" x="0" y="391.9" width="1464" height="24.65" shape-rendering="crispEdges"/><rect fill="#121212" x="0" y="416.3" width="1464" height="24.65" shape-rendering="crispEdges"/><rect fill="#121212" x="0" y="440.7" width="1464" height="24.65" shape-rendering="crispEdges"/><rect fill="#121212" x="0" y="465.1" width="1464" height="24.65" shape-rendering="crispEdges"/><rect fill="#121212" x="0" y="489.5" width="1464" height="24.65" shape-rendering="crispEdges"/><rect fill="#121212" x="0" y="513.9" width="1464" height="24.65" shape-rendering="crispEdges"/><rect fill="#121212" x="0" y="538.3" width="1464" height="24.65" shape-rendering="crispEdges"/><rect fill="#121212" x="0" y="562.7" width="1464" height="24.65" shape-rendering="crispEdges"/><rect fill="#121212" x="0" y="587.1" width="1464" height="24.65" shape-rendering="crispEdges"/><rect fill="#121212" x="0" y="611.5" width="1464" height="24.65" shape-rendering="crispEdges"/><rect fill="#121212" x="0" y="635.9" width="1464" height="24.65" shape-rendering="crispEdges"/><rect fill="#121212" x="0" y="660.3" width="1464" height="24.65" shape-rendering="crispEdges"/><rect fill="#121212" x="0" y="684.7" width="1464" height="24.65" shape-rendering="crispEdges"/><rect fill="#121212" x="0" y="709.1" width="1464" height="24.65" shape-rendering="crispEdges"/><rect fill="#121212" x="0" y="733.5" width="1464" height="24.65" shape-rendering="crispEdges"/><rect fill="#121212" x="0" y="757.9" width="1464" height="24.65" shape-rendering="crispEdges"/>
    <g class="terminal-ID-matrix">
    <text class="terminal-ID-r1" x="0" y="20" textLength="414.8" clip-path="url(#terminal-ID-line-0)">RUN · demo · clear · iteration 1/1</text><text class="terminal-ID-r2" x="1464" y="20" textLength="12.2" clip-path="url(#terminal-ID-line-0)">
</text><text class="terminal-ID-r1" x="0" y="44.4" textLength="24.4" clip-path="url(#terminal-ID-line-1)">┌▶</text><text class="terminal-ID-r1" x="536.8" y="44.4" textLength="280.6" clip-path="url(#terminal-ID-line-1)">✓ review · done · clear</text><text class="terminal-ID-r2" x="1464" y="44.4" textLength="12.2" clip-path="url(#terminal-ID-line-1)">
</text><text class="terminal-ID-r1" x="0" y="68.8" textLength="12.2" clip-path="url(#terminal-ID-line-2)">│</text><text class="terminal-ID-r1" x="536.8" y="68.8" textLength="231.8" clip-path="url(#terminal-ID-line-2)">⤫ triage · disabled</text><text class="terminal-ID-r2" x="1464" y="68.8" textLength="12.2" clip-path="url(#terminal-ID-line-2)">
</text><text class="terminal-ID-r1" x="0" y="93.2" textLength="12.2" clip-path="url(#terminal-ID-line-3)">│</text><text class="terminal-ID-r1" x="536.8" y="93.2" textLength="366" clip-path="url(#terminal-ID-line-3)">✓ remediation · done · skipped</text><text class="terminal-ID-r2" x="1464" y="93.2" textLength="12.2" clip-path="url(#terminal-ID-line-3)">
</text><text class="terminal-ID-r1" x="0" y="117.6" textLength="12.2" clip-path="url(#terminal-ID-line-4)">│</text><text class="terminal-ID-r1" x="536.8" y="117.6" textLength="292.8" clip-path="url(#terminal-ID-line-4)">✓ checks · done · passed</text><text class="terminal-ID-r2" x="1464" y="117.6" textLength="12.2" clip-path="url(#terminal-ID-line-4)">
</text><text class="terminal-ID-r1" x="0" y="142" textLength="402.6" clip-path="url(#terminal-ID-line-5)">└◀──── repeat while iteration &lt; 1</text><text class="terminal-ID-r1" x="536.8" y="142" textLength="231.8" clip-path="url(#terminal-ID-line-5)">⤫ commit · disabled</text><text class="terminal-ID-r2" x="1464" y="142" textLength="12.2" clip-path="url(#terminal-ID-line-5)">
</text><text class="terminal-ID-r1" x="0" y="166.4" textLength="73.2" clip-path="url(#terminal-ID-line-6)">events</text><text class="terminal-ID-r2" x="1464" y="166.4" textLength="12.2" clip-path="url(#terminal-ID-line-6)">
</text><text class="terminal-ID-r1" x="0" y="190.8" textLength="305" clip-path="url(#terminal-ID-line-7)">0001|review|1|phase_start</text><text class="terminal-ID-r2" x="1464" y="190.8" textLength="12.2" clip-path="url(#terminal-ID-line-7)">
</text><text class="terminal-ID-r1" x="0" y="215.2" textLength="402.6" clip-path="url(#terminal-ID-line-8)">0002|review|1|phase_result: clear</text><text class="terminal-ID-r2" x="1464" y="215.2" textLength="12.2" clip-path="url(#terminal-ID-line-8)">
</text><text class="terminal-ID-r1" x="0" y="239.6" textLength="341.6" clip-path="url(#terminal-ID-line-9)">0003|remediate|1|phase_start</text><text class="terminal-ID-r2" x="1464" y="239.6" textLength="12.2" clip-path="url(#terminal-ID-line-9)">
</text><text class="terminal-ID-r1" x="0" y="264" textLength="463.6" clip-path="url(#terminal-ID-line-10)">0004|remediate|1|phase_result: skipped</text><text class="terminal-ID-r2" x="1464" y="264" textLength="12.2" clip-path="url(#terminal-ID-line-10)">
</text><text class="terminal-ID-r1" x="0" y="288.4" textLength="390.4" clip-path="url(#terminal-ID-line-11)">0005|check_result|1|check_result</text><text class="terminal-ID-r2" x="1464" y="288.4" textLength="12.2" clip-path="url(#terminal-ID-line-11)">
</text><text class="terminal-ID-r1" x="0" y="312.8" textLength="305" clip-path="url(#terminal-ID-line-12)">0006|commit|1|phase_start</text><text class="terminal-ID-r2" x="1464" y="312.8" textLength="12.2" clip-path="url(#terminal-ID-line-12)">
</text><text class="terminal-ID-r1" x="0" y="337.2" textLength="427" clip-path="url(#terminal-ID-line-13)">0007|commit|1|phase_result: skipped</text><text class="terminal-ID-r2" x="1464" y="337.2" textLength="12.2" clip-path="url(#terminal-ID-line-13)">
</text><text class="terminal-ID-r2" x="1464" y="361.6" textLength="12.2" clip-path="url(#terminal-ID-line-14)">
</text><text class="terminal-ID-r2" x="1464" y="386" textLength="12.2" clip-path="url(#terminal-ID-line-15)">
</text><text class="terminal-ID-r2" x="1464" y="410.4" textLength="12.2" clip-path="url(#terminal-ID-line-16)">
</text><text class="terminal-ID-r2" x="1464" y="434.8" textLength="12.2" clip-path="url(#terminal-ID-line-17)">
</text><text class="terminal-ID-r2" x="1464" y="459.2" textLength="12.2" clip-path="url(#terminal-ID-line-18)">
</text><text class="terminal-ID-r2" x="1464" y="483.6" textLength="12.2" clip-path="url(#terminal-ID-line-19)">
</text><text class="terminal-ID-r2" x="1464" y="508" textLength="12.2" clip-path="url(#terminal-ID-line-20)">
</text><text class="terminal-ID-r2" x="1464" y="532.4" textLength="12.2" clip-path="url(#terminal-ID-line-21)">
</text><text class="terminal-ID-r2" x="1464" y="556.8" textLength="12.2" clip-path="url(#terminal-ID-line-22)">
</text><text class="terminal-ID-r2" x="1464" y="581.2" textLength="12.2" clip-path="url(#terminal-ID-line-23)">
</text><text class="terminal-ID-r2" x="1464" y="605.6" textLength="12.2" clip-path="url(#terminal-ID-line-24)">
</text><text class="terminal-ID-r2" x="1464" y="630" textLength="12.2" clip-path="url(#terminal-ID-line-25)">
</text><text class="terminal-ID-r2" x="1464" y="654.4" textLength="12.2" clip-path="url(#terminal-ID-line-26)">
</text><text class="terminal-ID-r2" x="1464" y="678.8" textLength="12.2" clip-path="url(#terminal-ID-line-27)">
</text><text class="terminal-ID-r2" x="1464" y="703.2" textLength="12.2" clip-path="url(#terminal-ID-line-28)">
</text><text class="terminal-ID-r2" x="1464" y="727.6" textLength="12.2" clip-path="url(#terminal-ID-line-29)">
</text><text class="terminal-ID-r2" x="1464" y="752" textLength="12.2" clip-path="url(#terminal-ID-line-30)">
</text>
    </g>
    </g>
</svg>
